<mxfile host="app.diagrams.net" modified="2024-03-22T02:56:11.409Z" agent="Mozilla/5.0 (Windows NT 10.0; Win64; x64) AppleWebKit/537.36 (KHTML, like Gecko) Chrome/122.0.0.0 Safari/537.36" etag="5kmM55WPPsO5vup4-PSD" version="24.0.7" type="device">
  <diagram name="第 1 页" id="QbLVf2gfpy3o8ATV1Y3V">
    <mxGraphModel dx="1434" dy="780" grid="1" gridSize="10" guides="1" tooltips="1" connect="1" arrows="1" fold="1" page="1" pageScale="1" pageWidth="827" pageHeight="1169" math="0" shadow="0">
      <root>
        <mxCell id="0" />
        <mxCell id="1" parent="0" />
        <mxCell id="I6yNmwCRS42xdABAiR0R-17" style="edgeStyle=orthogonalEdgeStyle;rounded=0;orthogonalLoop=1;jettySize=auto;html=1;exitX=1;exitY=0.5;exitDx=0;exitDy=0;exitPerimeter=0;entryX=0;entryY=0.5;entryDx=0;entryDy=0;" edge="1" parent="1" source="I6yNmwCRS42xdABAiR0R-2" target="I6yNmwCRS42xdABAiR0R-15">
          <mxGeometry relative="1" as="geometry" />
        </mxCell>
        <mxCell id="I6yNmwCRS42xdABAiR0R-2" value="越狱提示情报源" style="shape=cylinder3;whiteSpace=wrap;html=1;boundedLbl=1;backgroundOutline=1;size=15;" vertex="1" parent="1">
          <mxGeometry x="100" y="230" width="60" height="80" as="geometry" />
        </mxCell>
        <mxCell id="I6yNmwCRS42xdABAiR0R-3" value="公开网站" style="rounded=1;whiteSpace=wrap;html=1;" vertex="1" parent="1">
          <mxGeometry x="20" y="170" width="60" height="30" as="geometry" />
        </mxCell>
        <mxCell id="I6yNmwCRS42xdABAiR0R-5" value="公开论坛" style="rounded=1;whiteSpace=wrap;html=1;" vertex="1" parent="1">
          <mxGeometry x="100" y="170" width="60" height="30" as="geometry" />
        </mxCell>
        <mxCell id="I6yNmwCRS42xdABAiR0R-6" value="私域论坛" style="rounded=1;whiteSpace=wrap;html=1;" vertex="1" parent="1">
          <mxGeometry x="180" y="170" width="60" height="30" as="geometry" />
        </mxCell>
        <mxCell id="I6yNmwCRS42xdABAiR0R-7" style="edgeStyle=orthogonalEdgeStyle;rounded=0;orthogonalLoop=1;jettySize=auto;html=1;exitX=0.5;exitY=1;exitDx=0;exitDy=0;entryX=0.5;entryY=0;entryDx=0;entryDy=0;entryPerimeter=0;" edge="1" parent="1" source="I6yNmwCRS42xdABAiR0R-5" target="I6yNmwCRS42xdABAiR0R-2">
          <mxGeometry relative="1" as="geometry" />
        </mxCell>
        <mxCell id="I6yNmwCRS42xdABAiR0R-10" style="rounded=0;orthogonalLoop=1;jettySize=auto;html=1;exitX=0.5;exitY=1;exitDx=0;exitDy=0;entryX=0.5;entryY=0;entryDx=0;entryDy=0;entryPerimeter=0;" edge="1" parent="1" source="I6yNmwCRS42xdABAiR0R-3" target="I6yNmwCRS42xdABAiR0R-2">
          <mxGeometry relative="1" as="geometry" />
        </mxCell>
        <mxCell id="I6yNmwCRS42xdABAiR0R-11" style="rounded=0;orthogonalLoop=1;jettySize=auto;html=1;exitX=0.5;exitY=1;exitDx=0;exitDy=0;entryX=0.5;entryY=0;entryDx=0;entryDy=0;entryPerimeter=0;" edge="1" parent="1" source="I6yNmwCRS42xdABAiR0R-6" target="I6yNmwCRS42xdABAiR0R-2">
          <mxGeometry relative="1" as="geometry" />
        </mxCell>
        <mxCell id="I6yNmwCRS42xdABAiR0R-13" value="越狱提示筛选" style="swimlane;fontStyle=0;childLayout=stackLayout;horizontal=1;startSize=30;horizontalStack=0;resizeParent=1;resizeParentMax=0;resizeLast=0;collapsible=1;marginBottom=0;whiteSpace=wrap;html=1;" vertex="1" parent="1">
          <mxGeometry x="280" y="195" width="140" height="120" as="geometry" />
        </mxCell>
        <mxCell id="I6yNmwCRS42xdABAiR0R-14" value="分类" style="text;strokeColor=none;fillColor=none;align=left;verticalAlign=middle;spacingLeft=4;spacingRight=4;overflow=hidden;points=[[0,0.5],[1,0.5]];portConstraint=eastwest;rotatable=0;whiteSpace=wrap;html=1;" vertex="1" parent="I6yNmwCRS42xdABAiR0R-13">
          <mxGeometry y="30" width="140" height="30" as="geometry" />
        </mxCell>
        <mxCell id="I6yNmwCRS42xdABAiR0R-15" value="排重" style="text;strokeColor=none;fillColor=none;align=left;verticalAlign=middle;spacingLeft=4;spacingRight=4;overflow=hidden;points=[[0,0.5],[1,0.5]];portConstraint=eastwest;rotatable=0;whiteSpace=wrap;html=1;" vertex="1" parent="I6yNmwCRS42xdABAiR0R-13">
          <mxGeometry y="60" width="140" height="30" as="geometry" />
        </mxCell>
        <mxCell id="I6yNmwCRS42xdABAiR0R-16" value="打分" style="text;strokeColor=none;fillColor=none;align=left;verticalAlign=middle;spacingLeft=4;spacingRight=4;overflow=hidden;points=[[0,0.5],[1,0.5]];portConstraint=eastwest;rotatable=0;whiteSpace=wrap;html=1;" vertex="1" parent="I6yNmwCRS42xdABAiR0R-13">
          <mxGeometry y="90" width="140" height="30" as="geometry" />
        </mxCell>
        <mxCell id="I6yNmwCRS42xdABAiR0R-18" value="越狱提示种子池" style="shape=cylinder3;whiteSpace=wrap;html=1;boundedLbl=1;backgroundOutline=1;size=15;" vertex="1" parent="1">
          <mxGeometry x="530" y="217" width="60" height="80" as="geometry" />
        </mxCell>
        <mxCell id="I6yNmwCRS42xdABAiR0R-19" style="edgeStyle=orthogonalEdgeStyle;rounded=0;orthogonalLoop=1;jettySize=auto;html=1;exitX=1;exitY=0.5;exitDx=0;exitDy=0;entryX=0;entryY=0;entryDx=0;entryDy=52.5;entryPerimeter=0;" edge="1" parent="1" source="I6yNmwCRS42xdABAiR0R-15" target="I6yNmwCRS42xdABAiR0R-18">
          <mxGeometry relative="1" as="geometry" />
        </mxCell>
        <mxCell id="I6yNmwCRS42xdABAiR0R-20" value="得分超过基线的入池" style="text;html=1;align=center;verticalAlign=middle;resizable=0;points=[];autosize=1;strokeColor=none;fillColor=none;" vertex="1" parent="1">
          <mxGeometry x="410" y="240" width="130" height="30" as="geometry" />
        </mxCell>
        <mxCell id="I6yNmwCRS42xdABAiR0R-32" style="edgeStyle=orthogonalEdgeStyle;rounded=0;orthogonalLoop=1;jettySize=auto;html=1;exitX=0.5;exitY=1;exitDx=0;exitDy=0;exitPerimeter=0;entryX=0.5;entryY=0;entryDx=0;entryDy=0;" edge="1" parent="1" source="I6yNmwCRS42xdABAiR0R-22" target="I6yNmwCRS42xdABAiR0R-13">
          <mxGeometry relative="1" as="geometry" />
        </mxCell>
        <mxCell id="I6yNmwCRS42xdABAiR0R-22" value="越狱提示基线库" style="shape=cylinder3;whiteSpace=wrap;html=1;boundedLbl=1;backgroundOutline=1;size=15;" vertex="1" parent="1">
          <mxGeometry x="320" y="80" width="60" height="80" as="geometry" />
        </mxCell>
        <mxCell id="I6yNmwCRS42xdABAiR0R-57" style="rounded=0;orthogonalLoop=1;jettySize=auto;html=1;exitX=0.5;exitY=1;exitDx=0;exitDy=0;" edge="1" parent="1" source="I6yNmwCRS42xdABAiR0R-23">
          <mxGeometry relative="1" as="geometry">
            <mxPoint x="350" y="80" as="targetPoint" />
          </mxGeometry>
        </mxCell>
        <mxCell id="I6yNmwCRS42xdABAiR0R-23" value="禁止场景库" style="rounded=1;whiteSpace=wrap;html=1;" vertex="1" parent="1">
          <mxGeometry x="220" y="30" width="80" height="30" as="geometry" />
        </mxCell>
        <mxCell id="I6yNmwCRS42xdABAiR0R-28" value="有害提示库" style="rounded=1;whiteSpace=wrap;html=1;" vertex="1" parent="1">
          <mxGeometry x="310" y="30" width="80" height="30" as="geometry" />
        </mxCell>
        <mxCell id="I6yNmwCRS42xdABAiR0R-34" value="攻击成功率" style="rounded=1;whiteSpace=wrap;html=1;" vertex="1" parent="1">
          <mxGeometry x="400" y="30" width="80" height="30" as="geometry" />
        </mxCell>
        <mxCell id="I6yNmwCRS42xdABAiR0R-62" style="edgeStyle=orthogonalEdgeStyle;rounded=0;orthogonalLoop=1;jettySize=auto;html=1;exitX=1;exitY=0.5;exitDx=0;exitDy=0;exitPerimeter=0;entryX=0;entryY=0.5;entryDx=0;entryDy=0;" edge="1" parent="1" source="I6yNmwCRS42xdABAiR0R-36" target="I6yNmwCRS42xdABAiR0R-44">
          <mxGeometry relative="1" as="geometry" />
        </mxCell>
        <mxCell id="I6yNmwCRS42xdABAiR0R-36" value="禁止场景库" style="shape=cylinder3;whiteSpace=wrap;html=1;boundedLbl=1;backgroundOutline=1;size=15;" vertex="1" parent="1">
          <mxGeometry x="100" y="530" width="60" height="80" as="geometry" />
        </mxCell>
        <mxCell id="I6yNmwCRS42xdABAiR0R-38" value="各国大模型安全规范" style="rounded=1;whiteSpace=wrap;html=1;" vertex="1" parent="1">
          <mxGeometry x="30" y="470" width="90" height="30" as="geometry" />
        </mxCell>
        <mxCell id="I6yNmwCRS42xdABAiR0R-48" style="rounded=0;orthogonalLoop=1;jettySize=auto;html=1;exitX=0.5;exitY=1;exitDx=0;exitDy=0;" edge="1" parent="1" source="I6yNmwCRS42xdABAiR0R-39">
          <mxGeometry relative="1" as="geometry">
            <mxPoint x="130" y="530" as="targetPoint" />
          </mxGeometry>
        </mxCell>
        <mxCell id="I6yNmwCRS42xdABAiR0R-39" value="大模型厂家安全条例" style="rounded=1;whiteSpace=wrap;html=1;" vertex="1" parent="1">
          <mxGeometry x="140" y="470" width="90" height="30" as="geometry" />
        </mxCell>
        <mxCell id="I6yNmwCRS42xdABAiR0R-42" value="生成有害提示" style="swimlane;fontStyle=0;childLayout=stackLayout;horizontal=1;startSize=30;horizontalStack=0;resizeParent=1;resizeParentMax=0;resizeLast=0;collapsible=1;marginBottom=0;whiteSpace=wrap;html=1;" vertex="1" parent="1">
          <mxGeometry x="280" y="495" width="140" height="120" as="geometry">
            <mxRectangle x="274" y="500" width="110" height="30" as="alternateBounds" />
          </mxGeometry>
        </mxCell>
        <mxCell id="I6yNmwCRS42xdABAiR0R-43" value="针对每一禁止场景生成若干个有害提示" style="text;strokeColor=none;fillColor=none;align=left;verticalAlign=middle;spacingLeft=4;spacingRight=4;overflow=hidden;points=[[0,0.5],[1,0.5]];portConstraint=eastwest;rotatable=0;whiteSpace=wrap;html=1;" vertex="1" parent="I6yNmwCRS42xdABAiR0R-42">
          <mxGeometry y="30" width="140" height="30" as="geometry" />
        </mxCell>
        <mxCell id="I6yNmwCRS42xdABAiR0R-44" value="人工生成" style="text;strokeColor=none;fillColor=none;align=left;verticalAlign=middle;spacingLeft=4;spacingRight=4;overflow=hidden;points=[[0,0.5],[1,0.5]];portConstraint=eastwest;rotatable=0;whiteSpace=wrap;html=1;" vertex="1" parent="I6yNmwCRS42xdABAiR0R-42">
          <mxGeometry y="60" width="140" height="30" as="geometry" />
        </mxCell>
        <mxCell id="I6yNmwCRS42xdABAiR0R-45" value="大模型生成" style="text;strokeColor=none;fillColor=none;align=left;verticalAlign=middle;spacingLeft=4;spacingRight=4;overflow=hidden;points=[[0,0.5],[1,0.5]];portConstraint=eastwest;rotatable=0;whiteSpace=wrap;html=1;" vertex="1" parent="I6yNmwCRS42xdABAiR0R-42">
          <mxGeometry y="90" width="140" height="30" as="geometry" />
        </mxCell>
        <mxCell id="I6yNmwCRS42xdABAiR0R-47" style="rounded=0;orthogonalLoop=1;jettySize=auto;html=1;exitX=0.5;exitY=1;exitDx=0;exitDy=0;entryX=0.5;entryY=0;entryDx=0;entryDy=0;entryPerimeter=0;" edge="1" parent="1" source="I6yNmwCRS42xdABAiR0R-38" target="I6yNmwCRS42xdABAiR0R-36">
          <mxGeometry relative="1" as="geometry" />
        </mxCell>
        <mxCell id="I6yNmwCRS42xdABAiR0R-49" value="有害提示筛选" style="swimlane;fontStyle=0;childLayout=stackLayout;horizontal=1;startSize=30;horizontalStack=0;resizeParent=1;resizeParentMax=0;resizeLast=0;collapsible=1;marginBottom=0;whiteSpace=wrap;html=1;" vertex="1" parent="1">
          <mxGeometry x="470" y="495" width="140" height="120" as="geometry" />
        </mxCell>
        <mxCell id="I6yNmwCRS42xdABAiR0R-50" value="模型明确拒绝" style="text;strokeColor=none;fillColor=none;align=left;verticalAlign=middle;spacingLeft=4;spacingRight=4;overflow=hidden;points=[[0,0.5],[1,0.5]];portConstraint=eastwest;rotatable=0;whiteSpace=wrap;html=1;" vertex="1" parent="I6yNmwCRS42xdABAiR0R-49">
          <mxGeometry y="30" width="140" height="30" as="geometry" />
        </mxCell>
        <mxCell id="I6yNmwCRS42xdABAiR0R-51" value="符合所属禁止场景主题" style="text;strokeColor=none;fillColor=none;align=left;verticalAlign=middle;spacingLeft=4;spacingRight=4;overflow=hidden;points=[[0,0.5],[1,0.5]];portConstraint=eastwest;rotatable=0;whiteSpace=wrap;html=1;" vertex="1" parent="I6yNmwCRS42xdABAiR0R-49">
          <mxGeometry y="60" width="140" height="30" as="geometry" />
        </mxCell>
        <mxCell id="I6yNmwCRS42xdABAiR0R-52" value="不包含歧义" style="text;strokeColor=none;fillColor=none;align=left;verticalAlign=middle;spacingLeft=4;spacingRight=4;overflow=hidden;points=[[0,0.5],[1,0.5]];portConstraint=eastwest;rotatable=0;whiteSpace=wrap;html=1;" vertex="1" parent="I6yNmwCRS42xdABAiR0R-49">
          <mxGeometry y="90" width="140" height="30" as="geometry" />
        </mxCell>
        <mxCell id="I6yNmwCRS42xdABAiR0R-53" value="有害提示库" style="shape=cylinder3;whiteSpace=wrap;html=1;boundedLbl=1;backgroundOutline=1;size=15;" vertex="1" parent="1">
          <mxGeometry x="660" y="517" width="60" height="80" as="geometry" />
        </mxCell>
        <mxCell id="I6yNmwCRS42xdABAiR0R-55" style="edgeStyle=orthogonalEdgeStyle;rounded=0;orthogonalLoop=1;jettySize=auto;html=1;exitX=0.5;exitY=1;exitDx=0;exitDy=0;entryX=0.5;entryY=0;entryDx=0;entryDy=0;entryPerimeter=0;" edge="1" parent="1" source="I6yNmwCRS42xdABAiR0R-28" target="I6yNmwCRS42xdABAiR0R-22">
          <mxGeometry relative="1" as="geometry" />
        </mxCell>
        <mxCell id="I6yNmwCRS42xdABAiR0R-56" style="rounded=0;orthogonalLoop=1;jettySize=auto;html=1;exitX=0.5;exitY=1;exitDx=0;exitDy=0;entryX=0.5;entryY=0;entryDx=0;entryDy=0;entryPerimeter=0;" edge="1" parent="1" source="I6yNmwCRS42xdABAiR0R-34" target="I6yNmwCRS42xdABAiR0R-22">
          <mxGeometry relative="1" as="geometry" />
        </mxCell>
        <mxCell id="I6yNmwCRS42xdABAiR0R-63" style="edgeStyle=orthogonalEdgeStyle;rounded=0;orthogonalLoop=1;jettySize=auto;html=1;exitX=1;exitY=0.5;exitDx=0;exitDy=0;entryX=0;entryY=0.5;entryDx=0;entryDy=0;" edge="1" parent="1" source="I6yNmwCRS42xdABAiR0R-44" target="I6yNmwCRS42xdABAiR0R-51">
          <mxGeometry relative="1" as="geometry" />
        </mxCell>
        <mxCell id="I6yNmwCRS42xdABAiR0R-64" style="edgeStyle=orthogonalEdgeStyle;rounded=0;orthogonalLoop=1;jettySize=auto;html=1;exitX=1;exitY=0.5;exitDx=0;exitDy=0;entryX=0;entryY=0;entryDx=0;entryDy=52.5;entryPerimeter=0;" edge="1" parent="1" source="I6yNmwCRS42xdABAiR0R-51" target="I6yNmwCRS42xdABAiR0R-53">
          <mxGeometry relative="1" as="geometry" />
        </mxCell>
        <mxCell id="I6yNmwCRS42xdABAiR0R-107" style="rounded=0;orthogonalLoop=1;jettySize=auto;html=1;exitX=1;exitY=0.5;exitDx=0;exitDy=0;entryX=0;entryY=0.5;entryDx=0;entryDy=0;" edge="1" parent="1" source="I6yNmwCRS42xdABAiR0R-65" target="I6yNmwCRS42xdABAiR0R-92">
          <mxGeometry relative="1" as="geometry" />
        </mxCell>
        <mxCell id="I6yNmwCRS42xdABAiR0R-108" style="rounded=0;orthogonalLoop=1;jettySize=auto;html=1;exitX=1;exitY=0.5;exitDx=0;exitDy=0;entryX=0;entryY=0.5;entryDx=0;entryDy=0;" edge="1" parent="1" source="I6yNmwCRS42xdABAiR0R-65" target="I6yNmwCRS42xdABAiR0R-93">
          <mxGeometry relative="1" as="geometry" />
        </mxCell>
        <mxCell id="I6yNmwCRS42xdABAiR0R-109" style="rounded=0;orthogonalLoop=1;jettySize=auto;html=1;exitX=1;exitY=0.5;exitDx=0;exitDy=0;entryX=0;entryY=0.5;entryDx=0;entryDy=0;" edge="1" parent="1" source="I6yNmwCRS42xdABAiR0R-65" target="I6yNmwCRS42xdABAiR0R-94">
          <mxGeometry relative="1" as="geometry" />
        </mxCell>
        <mxCell id="I6yNmwCRS42xdABAiR0R-110" style="rounded=0;orthogonalLoop=1;jettySize=auto;html=1;exitX=1;exitY=0.5;exitDx=0;exitDy=0;entryX=0;entryY=0.5;entryDx=0;entryDy=0;" edge="1" parent="1" source="I6yNmwCRS42xdABAiR0R-65" target="I6yNmwCRS42xdABAiR0R-95">
          <mxGeometry relative="1" as="geometry" />
        </mxCell>
        <mxCell id="I6yNmwCRS42xdABAiR0R-65" value="&lt;font style=&quot;font-size: 14px;&quot;&gt;攻击大模型&lt;/font&gt;" style="rounded=1;whiteSpace=wrap;html=1;" vertex="1" parent="1">
          <mxGeometry x="540" y="810" width="110" height="50" as="geometry" />
        </mxCell>
        <mxCell id="I6yNmwCRS42xdABAiR0R-98" style="edgeStyle=orthogonalEdgeStyle;rounded=0;orthogonalLoop=1;jettySize=auto;html=1;exitX=1;exitY=0.5;exitDx=0;exitDy=0;exitPerimeter=0;entryX=0;entryY=0.5;entryDx=0;entryDy=0;" edge="1" parent="1" source="I6yNmwCRS42xdABAiR0R-74" target="I6yNmwCRS42xdABAiR0R-82">
          <mxGeometry relative="1" as="geometry" />
        </mxCell>
        <mxCell id="I6yNmwCRS42xdABAiR0R-74" value="越狱提示种子池" style="shape=cylinder3;whiteSpace=wrap;html=1;boundedLbl=1;backgroundOutline=1;size=15;" vertex="1" parent="1">
          <mxGeometry x="100" y="800" width="60" height="80" as="geometry" />
        </mxCell>
        <mxCell id="I6yNmwCRS42xdABAiR0R-81" value="提取越狱策略" style="swimlane;fontStyle=0;childLayout=stackLayout;horizontal=1;startSize=30;horizontalStack=0;resizeParent=1;resizeParentMax=0;resizeLast=0;collapsible=1;marginBottom=0;whiteSpace=wrap;html=1;" vertex="1" parent="1">
          <mxGeometry x="220" y="765" width="140" height="120" as="geometry" />
        </mxCell>
        <mxCell id="I6yNmwCRS42xdABAiR0R-82" value="自动根据不同类别的越狱提示，生成该类别的few-shot CoT系统策略提示" style="text;strokeColor=none;fillColor=none;align=left;verticalAlign=middle;spacingLeft=4;spacingRight=4;overflow=hidden;points=[[0,0.5],[1,0.5]];portConstraint=eastwest;rotatable=0;whiteSpace=wrap;html=1;" vertex="1" parent="I6yNmwCRS42xdABAiR0R-81">
          <mxGeometry y="30" width="140" height="90" as="geometry" />
        </mxCell>
        <mxCell id="I6yNmwCRS42xdABAiR0R-103" style="rounded=0;orthogonalLoop=1;jettySize=auto;html=1;exitX=1;exitY=0.5;exitDx=0;exitDy=0;entryX=0;entryY=0.5;entryDx=0;entryDy=0;" edge="1" parent="1" source="I6yNmwCRS42xdABAiR0R-85" target="I6yNmwCRS42xdABAiR0R-65">
          <mxGeometry relative="1" as="geometry" />
        </mxCell>
        <mxCell id="I6yNmwCRS42xdABAiR0R-85" value="策略1" style="rounded=1;whiteSpace=wrap;html=1;" vertex="1" parent="1">
          <mxGeometry x="415" y="730" width="60" height="30" as="geometry" />
        </mxCell>
        <mxCell id="I6yNmwCRS42xdABAiR0R-104" style="rounded=0;orthogonalLoop=1;jettySize=auto;html=1;exitX=1;exitY=0.5;exitDx=0;exitDy=0;entryX=0;entryY=0.5;entryDx=0;entryDy=0;" edge="1" parent="1" source="I6yNmwCRS42xdABAiR0R-86" target="I6yNmwCRS42xdABAiR0R-65">
          <mxGeometry relative="1" as="geometry" />
        </mxCell>
        <mxCell id="I6yNmwCRS42xdABAiR0R-86" value="策略2" style="rounded=1;whiteSpace=wrap;html=1;" vertex="1" parent="1">
          <mxGeometry x="415" y="780" width="60" height="30" as="geometry" />
        </mxCell>
        <mxCell id="I6yNmwCRS42xdABAiR0R-105" style="rounded=0;orthogonalLoop=1;jettySize=auto;html=1;exitX=1;exitY=0.5;exitDx=0;exitDy=0;entryX=0;entryY=0.5;entryDx=0;entryDy=0;" edge="1" parent="1" source="I6yNmwCRS42xdABAiR0R-87" target="I6yNmwCRS42xdABAiR0R-65">
          <mxGeometry relative="1" as="geometry" />
        </mxCell>
        <mxCell id="I6yNmwCRS42xdABAiR0R-87" value="策略3" style="rounded=1;whiteSpace=wrap;html=1;" vertex="1" parent="1">
          <mxGeometry x="415" y="840" width="60" height="30" as="geometry" />
        </mxCell>
        <mxCell id="I6yNmwCRS42xdABAiR0R-106" style="rounded=0;orthogonalLoop=1;jettySize=auto;html=1;exitX=1;exitY=0.5;exitDx=0;exitDy=0;entryX=0;entryY=0.5;entryDx=0;entryDy=0;" edge="1" parent="1" source="I6yNmwCRS42xdABAiR0R-88" target="I6yNmwCRS42xdABAiR0R-65">
          <mxGeometry relative="1" as="geometry" />
        </mxCell>
        <mxCell id="I6yNmwCRS42xdABAiR0R-88" value="策略..." style="rounded=1;whiteSpace=wrap;html=1;" vertex="1" parent="1">
          <mxGeometry x="415" y="900" width="60" height="30" as="geometry" />
        </mxCell>
        <mxCell id="I6yNmwCRS42xdABAiR0R-115" style="edgeStyle=orthogonalEdgeStyle;rounded=0;orthogonalLoop=1;jettySize=auto;html=1;exitX=0.5;exitY=1;exitDx=0;exitDy=0;entryX=1;entryY=0.5;entryDx=0;entryDy=0;" edge="1" parent="1" source="I6yNmwCRS42xdABAiR0R-91" target="I6yNmwCRS42xdABAiR0R-96">
          <mxGeometry relative="1" as="geometry" />
        </mxCell>
        <mxCell id="I6yNmwCRS42xdABAiR0R-91" value="&lt;font style=&quot;font-size: 14px;&quot;&gt;目标大模型&lt;/font&gt;" style="rounded=1;whiteSpace=wrap;html=1;" vertex="1" parent="1">
          <mxGeometry x="850" y="810" width="110" height="50" as="geometry" />
        </mxCell>
        <mxCell id="I6yNmwCRS42xdABAiR0R-111" style="rounded=0;orthogonalLoop=1;jettySize=auto;html=1;exitX=1;exitY=0.5;exitDx=0;exitDy=0;entryX=0;entryY=0.5;entryDx=0;entryDy=0;" edge="1" parent="1" source="I6yNmwCRS42xdABAiR0R-92" target="I6yNmwCRS42xdABAiR0R-91">
          <mxGeometry relative="1" as="geometry" />
        </mxCell>
        <mxCell id="I6yNmwCRS42xdABAiR0R-92" value="分支1" style="rounded=1;whiteSpace=wrap;html=1;" vertex="1" parent="1">
          <mxGeometry x="710" y="730" width="60" height="30" as="geometry" />
        </mxCell>
        <mxCell id="I6yNmwCRS42xdABAiR0R-112" style="rounded=0;orthogonalLoop=1;jettySize=auto;html=1;exitX=1;exitY=0.5;exitDx=0;exitDy=0;entryX=0;entryY=0.5;entryDx=0;entryDy=0;" edge="1" parent="1" source="I6yNmwCRS42xdABAiR0R-93" target="I6yNmwCRS42xdABAiR0R-91">
          <mxGeometry relative="1" as="geometry" />
        </mxCell>
        <mxCell id="I6yNmwCRS42xdABAiR0R-93" value="分支2" style="rounded=1;whiteSpace=wrap;html=1;" vertex="1" parent="1">
          <mxGeometry x="710" y="780" width="60" height="30" as="geometry" />
        </mxCell>
        <mxCell id="I6yNmwCRS42xdABAiR0R-113" style="rounded=0;orthogonalLoop=1;jettySize=auto;html=1;exitX=1;exitY=0.5;exitDx=0;exitDy=0;entryX=0;entryY=0.5;entryDx=0;entryDy=0;" edge="1" parent="1" source="I6yNmwCRS42xdABAiR0R-94" target="I6yNmwCRS42xdABAiR0R-91">
          <mxGeometry relative="1" as="geometry" />
        </mxCell>
        <mxCell id="I6yNmwCRS42xdABAiR0R-94" value="分支3" style="rounded=1;whiteSpace=wrap;html=1;" vertex="1" parent="1">
          <mxGeometry x="710" y="840" width="60" height="30" as="geometry" />
        </mxCell>
        <mxCell id="I6yNmwCRS42xdABAiR0R-114" style="rounded=0;orthogonalLoop=1;jettySize=auto;html=1;exitX=1;exitY=0.5;exitDx=0;exitDy=0;entryX=0;entryY=0.5;entryDx=0;entryDy=0;" edge="1" parent="1" source="I6yNmwCRS42xdABAiR0R-95" target="I6yNmwCRS42xdABAiR0R-91">
          <mxGeometry relative="1" as="geometry" />
        </mxCell>
        <mxCell id="I6yNmwCRS42xdABAiR0R-95" value="分支..." style="rounded=1;whiteSpace=wrap;html=1;" vertex="1" parent="1">
          <mxGeometry x="710" y="900" width="60" height="30" as="geometry" />
        </mxCell>
        <mxCell id="I6yNmwCRS42xdABAiR0R-116" style="edgeStyle=orthogonalEdgeStyle;rounded=0;orthogonalLoop=1;jettySize=auto;html=1;exitX=0;exitY=0.5;exitDx=0;exitDy=0;entryX=1;entryY=0.5;entryDx=0;entryDy=0;" edge="1" parent="1" source="I6yNmwCRS42xdABAiR0R-96" target="I6yNmwCRS42xdABAiR0R-97">
          <mxGeometry relative="1" as="geometry" />
        </mxCell>
        <mxCell id="I6yNmwCRS42xdABAiR0R-96" value="&lt;font style=&quot;font-size: 14px;&quot;&gt;评估大模型&lt;/font&gt;" style="rounded=1;whiteSpace=wrap;html=1;" vertex="1" parent="1">
          <mxGeometry x="540" y="1000" width="110" height="50" as="geometry" />
        </mxCell>
        <mxCell id="I6yNmwCRS42xdABAiR0R-97" value="&lt;font style=&quot;font-size: 14px;&quot;&gt;鉴别大模型&lt;/font&gt;" style="rounded=1;whiteSpace=wrap;html=1;" vertex="1" parent="1">
          <mxGeometry x="327" y="1000" width="110" height="50" as="geometry" />
        </mxCell>
        <mxCell id="I6yNmwCRS42xdABAiR0R-99" style="rounded=0;orthogonalLoop=1;jettySize=auto;html=1;exitX=1;exitY=0.5;exitDx=0;exitDy=0;entryX=0;entryY=0.5;entryDx=0;entryDy=0;" edge="1" parent="1" source="I6yNmwCRS42xdABAiR0R-82" target="I6yNmwCRS42xdABAiR0R-85">
          <mxGeometry relative="1" as="geometry" />
        </mxCell>
        <mxCell id="I6yNmwCRS42xdABAiR0R-100" style="rounded=0;orthogonalLoop=1;jettySize=auto;html=1;exitX=1;exitY=0.5;exitDx=0;exitDy=0;entryX=0;entryY=0.75;entryDx=0;entryDy=0;" edge="1" parent="1" source="I6yNmwCRS42xdABAiR0R-82" target="I6yNmwCRS42xdABAiR0R-86">
          <mxGeometry relative="1" as="geometry" />
        </mxCell>
        <mxCell id="I6yNmwCRS42xdABAiR0R-101" style="rounded=0;orthogonalLoop=1;jettySize=auto;html=1;exitX=1;exitY=0.5;exitDx=0;exitDy=0;entryX=0;entryY=0.5;entryDx=0;entryDy=0;" edge="1" parent="1" source="I6yNmwCRS42xdABAiR0R-82" target="I6yNmwCRS42xdABAiR0R-87">
          <mxGeometry relative="1" as="geometry" />
        </mxCell>
        <mxCell id="I6yNmwCRS42xdABAiR0R-102" style="rounded=0;orthogonalLoop=1;jettySize=auto;html=1;exitX=1;exitY=0.5;exitDx=0;exitDy=0;entryX=0;entryY=0.5;entryDx=0;entryDy=0;" edge="1" parent="1" source="I6yNmwCRS42xdABAiR0R-82" target="I6yNmwCRS42xdABAiR0R-88">
          <mxGeometry relative="1" as="geometry" />
        </mxCell>
        <mxCell id="I6yNmwCRS42xdABAiR0R-117" value="越狱效果评分" style="text;html=1;align=center;verticalAlign=middle;resizable=0;points=[];autosize=1;strokeColor=none;fillColor=none;" vertex="1" parent="1">
          <mxGeometry x="440" y="1000" width="100" height="30" as="geometry" />
        </mxCell>
        <mxCell id="I6yNmwCRS42xdABAiR0R-118" style="edgeStyle=orthogonalEdgeStyle;rounded=0;orthogonalLoop=1;jettySize=auto;html=1;exitX=0;exitY=0.5;exitDx=0;exitDy=0;entryX=0.5;entryY=1;entryDx=0;entryDy=0;entryPerimeter=0;" edge="1" parent="1" source="I6yNmwCRS42xdABAiR0R-97" target="I6yNmwCRS42xdABAiR0R-74">
          <mxGeometry relative="1" as="geometry" />
        </mxCell>
        <mxCell id="I6yNmwCRS42xdABAiR0R-119" value="是否为新方法、新变种，&lt;span style=&quot;background-color: initial;&quot;&gt;是否有提升&lt;/span&gt;" style="text;html=1;align=center;verticalAlign=middle;resizable=0;points=[];autosize=1;strokeColor=none;fillColor=none;" vertex="1" parent="1">
          <mxGeometry x="120" y="1000" width="220" height="30" as="geometry" />
        </mxCell>
      </root>
    </mxGraphModel>
  </diagram>
</mxfile>
